<svg xmlns="http://www.w3.org/2000/svg" width="200" height="54" fill="none"><path fill="#fff" fill-rule="evenodd" d="M47.235 7.224c2.307 0 4.102.841 5.42 2.595 1.318 1.718 1.977 4.067 1.977 7.048 0 3.086-.66 5.47-2.014 7.154-1.355 1.718-3.186 2.524-5.492 2.524-2.307 0-4.065-.771-5.383-2.384h-.366l-.696 1.648a.68.68 0 0 1-.622.386h-2.93a.643.643 0 0 1-.659-.631V.912c0-.35.293-.631.66-.631h3.954c.366 0 .659.28.659.63v5.401c0 .771-.073 1.999-.22 3.682h.22c1.208-1.823 3.076-2.77 5.492-2.77Zm-1.684 4.102c-1.282 0-2.27.386-2.893 1.158-.586.771-.915 2.069-.915 3.822v.561c0 1.999.293 3.436.915 4.278.623.842 1.611 1.298 2.966 1.298 1.062 0 1.978-.491 2.6-1.473.623-.947.952-2.385.952-4.173 0-1.824-.33-3.191-.952-4.103-.659-.912-1.574-1.368-2.673-1.368ZM63.347 26.23h-3.955a.643.643 0 0 1-.659-.631V8.24c0-.351.293-.632.66-.632h3.954c.366 0 .659.281.659.632v17.323c.037.315-.293.666-.66.666Zm14.463-3.752c.77 0 1.685-.14 2.783-.421.293-.07.55.14.55.42v2.911a.43.43 0 0 1-.257.386c-1.245.49-2.82.736-4.577.736-2.124 0-3.662-.49-4.614-1.543-.952-1.017-1.464-2.56-1.464-4.593v-8.942h-2.087c-.257 0-.44-.176-.44-.421V9.363c0-.035.037-.07.037-.105l2.892-1.649 1.428-3.646a.427.427 0 0 1 .403-.281h2.637c.256 0 .44.175.44.42v3.542h5.235c.11 0 .22.106.22.21v3.157c0 .245-.183.42-.44.42h-4.98v8.908c0 .7.22 1.262.623 1.578.366.385.952.56 1.611.56Zm24.643 3.752c-.512 0-.915-.316-1.135-.772l-3.881-11.326c-.257-.807-.586-2.034-1.025-3.612h-.11l-.366 1.262-.77 2.385-3.99 11.326c-.147.456-.587.737-1.1.737-.512 0-.951-.316-1.098-.807l-4.87-16.306c-.146-.49.257-1.017.843-1.017h.11c.366 0 .695.246.805.596l2.856 9.924c.696 2.595 1.172 4.489 1.392 5.751h.11c.658-2.595 1.171-4.313 1.5-5.19l3.699-10.38c.146-.42.55-.7 1.062-.7.476 0 .879.28 1.025.7l3.442 10.31c.842 2.63 1.355 4.313 1.538 5.19h.11c.11-.701.549-2.665 1.391-5.821l2.746-9.784c.11-.35.44-.596.806-.596.549 0 .952.491.806 1.017l-4.614 16.306c-.147.491-.586.807-1.135.807h-.147Zm21.751 0c-.33 0-.623-.246-.66-.561l-.329-2.315h-.183c-.952 1.158-1.904 2-2.929 2.49-.989.49-2.197.701-3.552.701-1.868 0-3.296-.456-4.321-1.367-.915-.807-1.428-1.894-1.501-3.261-.147-1.824.659-3.577 2.197-4.594 1.574-.982 3.771-1.578 6.737-1.578l3.589-.105v-1.193c0-1.753-.367-3.015-1.136-3.892-.769-.877-1.904-1.297-3.515-1.297-1.538 0-3.076.35-4.687 1.087a.82.82 0 0 1-1.062-.386.71.71 0 0 1 .403-.982c1.831-.701 3.625-1.087 5.456-1.087 2.087 0 3.625.526 4.687 1.578 1.025 1.017 1.538 2.665 1.538 4.804V25.67c-.037.21-.366.56-.732.56Zm-7.58-1.192c2.05 0 3.625-.562 4.76-1.649 1.172-1.087 1.758-2.665 1.758-4.593v-1.754l-3.296.14c-2.673.106-4.54.527-5.712 1.193-1.135.666-1.721 1.753-1.721 3.156 0 1.122.366 2.034 1.062 2.665.805.526 1.831.841 3.149.841ZM138.301 7.75c.549 0 1.098.035 1.721.105.476.07.769.49.696.912-.074.42-.513.666-.952.596-.55-.07-1.099-.14-1.648-.14-1.611 0-2.929.666-3.955 1.963-1.025 1.298-1.538 2.98-1.538 4.945v9.187c0 .456-.366.806-.842.806s-.842-.35-.842-.806V8.837c0-.386.33-.702.732-.702.403 0 .733.281.733.667l.146 2.595h.11c.769-1.333 1.611-2.28 2.49-2.806.842-.56 1.904-.841 3.149-.841Zm12.889 0c1.355 0 2.563.245 3.552.701 1.025.456 1.904 1.297 2.673 2.455h.11a78.897 78.897 0 0 1-.11-4.103V1.087c0-.456.366-.806.842-.806s.842.35.842.806V25.6c0 .315-.256.56-.586.56a.585.585 0 0 1-.586-.525l-.366-2.28h-.146c-1.428 2.07-3.515 3.086-6.188 3.086-2.637 0-4.577-.771-6.005-2.35-1.355-1.577-2.088-3.822-2.088-6.802 0-3.121.659-5.506 2.051-7.189 1.391-1.508 3.369-2.35 6.005-2.35Zm0 1.508c-2.087 0-3.625.7-4.687 2.104-1.025 1.367-1.538 3.366-1.538 6.031 0 5.12 2.087 7.68 6.262 7.68 2.16 0 3.698-.597 4.687-1.789 1.025-1.192 1.501-3.156 1.501-5.891v-.28c0-2.806-.476-4.805-1.501-5.997-.952-1.262-2.527-1.858-4.724-1.858Zm21.933 17.287c-2.746 0-4.87-.806-6.444-2.454-1.538-1.613-2.307-3.893-2.307-6.803s.732-5.225 2.234-6.943c1.501-1.754 3.478-2.63 6.005-2.63 2.197 0 3.991.736 5.236 2.209 1.318 1.473 1.941 3.507 1.941 6.066v1.333h-13.622c.037 2.49.623 4.383 1.831 5.716 1.208 1.332 2.893 1.928 5.126 1.928 1.062 0 2.051-.07 2.856-.21a15.32 15.32 0 0 0 2.124-.561c.476-.175.989.175.989.666a.72.72 0 0 1-.476.666c-.879.351-1.721.562-2.49.702-.915.245-1.904.315-3.003.315Zm-.512-17.323c-1.831 0-3.296.562-4.394 1.719-1.099 1.122-1.721 2.805-1.941 4.944h11.717c0-2.069-.476-3.752-1.428-4.91-.952-1.156-2.27-1.753-3.954-1.753Zm26.51 17.008c-.476 0-.842-.35-.842-.807V14.447c0-1.823-.403-3.156-1.172-3.962-.842-.807-2.05-1.263-3.735-1.263-2.27 0-3.918.526-4.943 1.649-1.025 1.087-1.611 2.875-1.611 5.295v9.187c0 .456-.366.807-.842.807s-.842-.351-.842-.807V8.837c0-.421.329-.737.769-.737.402 0 .695.28.769.632l.219 1.823h.11c1.245-1.894 3.405-2.84 6.554-2.84 4.285 0 6.445 2.209 6.445 6.627v11.011c-.037.491-.439.877-.879.877ZM61.406 0c-1.72 0-3.112 1.262-3.112 2.84v.28c0 1.544 1.428 2.841 3.112 2.841 1.684 0 3.113-1.297 3.113-2.84v-.246C64.519 1.262 63.09 0 61.406 0ZM24.68.631a1.217 1.217 0 0 0-.88-.35H1.246a1.16 1.16 0 0 0-.879.35A1.17 1.17 0 0 0 0 1.473V15.85c0 1.052.22 2.14.66 3.191.439 1.052.951 1.999 1.61 2.805a15.776 15.776 0 0 0 2.307 2.385c.879.771 1.721 1.438 2.49 1.929.732.49 1.575.982 2.38 1.437.806.456 1.392.772 1.721.912.33.175.623.28.806.386.146.07.33.105.512.105.183 0 .366-.035.513-.105.22-.07.476-.21.842-.386.33-.175.916-.456 1.721-.912a52.637 52.637 0 0 0 2.38-1.437 24.936 24.936 0 0 0 2.49-1.929c.879-.772 1.648-1.543 2.307-2.385a12.456 12.456 0 0 0 1.611-2.805c.44-1.052.66-2.139.66-3.19V1.472c.036-.28-.074-.596-.33-.842Zm-2.893 15.36c0 5.224-9.264 9.713-9.264 9.713V3.366h9.264V15.99Z" clip-rule="evenodd"/><path fill="#fff" d="M41.913 48.522c-1.006 0-1.878-.193-2.615-.58-.737-.385-1.305-.977-1.702-1.774S37 44.36 37 43.132c0-1.278.218-2.321.654-3.131.436-.81 1.038-1.407 1.807-1.793.776-.386 1.663-.58 2.663-.58.635 0 1.209.064 1.721.19.52.12.959.27 1.318.447l-.673 1.783a9.893 9.893 0 0 0-1.202-.398 4.657 4.657 0 0 0-1.183-.161c-.622 0-1.14.136-1.557.408-.41.272-.718.676-.923 1.214-.199.538-.298 1.205-.298 2.002 0 .772.102 1.423.307 1.955.205.525.51.923.914 1.195.404.266.9.399 1.49.399.583 0 1.106-.07 1.567-.209.462-.14.897-.32 1.308-.54v1.935a4.883 4.883 0 0 1-1.298.503c-.462.114-1.03.17-1.702.17ZM57.016 43.056c0 .873-.115 1.648-.346 2.325a4.643 4.643 0 0 1-1.01 1.717 4.453 4.453 0 0 1-1.596 1.063c-.621.24-1.323.36-2.105.36-.73 0-1.4-.12-2.01-.36a4.587 4.587 0 0 1-1.586-1.063 4.86 4.86 0 0 1-1.029-1.717c-.243-.677-.365-1.452-.365-2.325 0-1.157.202-2.138.606-2.941.41-.81.993-1.427 1.75-1.85.756-.424 1.656-.636 2.701-.636.98 0 1.846.212 2.596.636.75.423 1.336 1.04 1.76 1.85.422.81.634 1.79.634 2.941Zm-7.72 0c0 .766.093 1.42.279 1.964.192.544.487.962.884 1.253.397.284.91.427 1.538.427.629 0 1.141-.143 1.539-.427.397-.291.689-.709.874-1.253.186-.544.28-1.198.28-1.964 0-.765-.094-1.414-.28-1.945-.185-.538-.477-.946-.874-1.224-.398-.285-.914-.427-1.548-.427-.936 0-1.619.31-2.048.93-.43.62-.644 1.509-.644 2.666ZM65.341 37.629c1.199 0 2.131.307 2.798.92.673.608 1.01 1.585 1.01 2.932v6.85h-2.26V41.9c0-.816-.17-1.427-.51-1.832-.34-.41-.865-.616-1.576-.616-1.032 0-1.75.313-2.154.939-.397.626-.596 1.534-.596 2.723v5.219h-2.26V37.828h1.76l.317 1.423h.125c.231-.366.516-.667.856-.901.346-.24.73-.42 1.154-.54.429-.121.874-.181 1.336-.181ZM76.454 46.719c.295 0 .587-.026.875-.076.289-.057.551-.123.788-.2v1.69c-.25.107-.573.199-.97.275a6.6 6.6 0 0 1-1.24.114 4.27 4.27 0 0 1-1.626-.295c-.48-.202-.862-.547-1.144-1.034-.282-.487-.423-1.16-.423-2.02v-5.647h-1.451v-.996l1.557-.787.74-2.249h1.423v2.334h3.048v1.698h-3.048v5.618c0 .531.135.926.404 1.186.27.259.625.389 1.067.389ZM85.856 37.629a6.585 6.585 0 0 1 1.135.104l-.212 2.088a2.887 2.887 0 0 0-.5-.086 5.33 5.33 0 0 0-.52-.028c-.403 0-.787.066-1.153.2a2.68 2.68 0 0 0-.97.587c-.283.26-.504.586-.664.978-.16.392-.24.847-.24 1.366v5.494h-2.27V37.828h1.77l.307 1.85h.106c.211-.373.474-.714.788-1.024a3.7 3.7 0 0 1 1.077-.74c.41-.19.859-.285 1.346-.285ZM91.403 37.828v10.504h-2.26V37.828h2.26Zm-1.116-4.023c.346 0 .644.092.894.275.257.184.385.5.385.949 0 .443-.128.76-.385.949a1.47 1.47 0 0 1-.894.275c-.359 0-.663-.092-.913-.275-.244-.19-.365-.506-.365-.949 0-.45.121-.765.365-.949.25-.183.554-.275.913-.275ZM97.084 33.568v3.558c0 .411-.013.816-.039 1.215-.02.392-.038.698-.058.92h.097a3.584 3.584 0 0 1 1.201-1.148c.52-.316 1.183-.475 1.991-.475 1.262 0 2.278.459 3.047 1.376.769.911 1.154 2.262 1.154 4.052 0 1.189-.176 2.188-.529 2.998-.352.81-.849 1.423-1.49 1.84-.635.412-1.381.617-2.24.617-.808 0-1.462-.145-1.962-.436-.493-.297-.88-.642-1.163-1.034h-.163l-.414 1.28h-1.692V33.569h2.26Zm2.595 5.883c-.64 0-1.15.126-1.528.38-.372.252-.641.632-.808 1.138-.166.5-.253 1.135-.26 1.907v.2c0 1.17.186 2.065.558 2.684.378.62 1.064.93 2.058.93.788 0 1.394-.313 1.817-.94.423-.632.634-1.536.634-2.713 0-1.189-.211-2.084-.634-2.685-.417-.6-1.029-.901-1.837-.901ZM116.552 37.828v10.504h-1.779l-.308-1.414h-.125c-.224.36-.509.661-.855.901a3.822 3.822 0 0 1-1.154.522c-.423.12-.869.18-1.336.18-.802 0-1.487-.132-2.058-.398a2.84 2.84 0 0 1-1.298-1.252c-.301-.564-.452-1.29-.452-2.183v-6.86h2.269v6.443c0 .816.167 1.426.5 1.831.34.405.865.607 1.577.607.686 0 1.231-.139 1.634-.417.404-.279.689-.69.856-1.234.173-.544.26-1.211.26-2.002v-5.228h2.269ZM123.934 46.719c.295 0 .587-.026.875-.076.289-.057.551-.123.789-.2v1.69c-.25.107-.574.199-.971.275a6.607 6.607 0 0 1-1.241.114 4.265 4.265 0 0 1-1.624-.295c-.481-.202-.863-.547-1.145-1.034-.282-.487-.423-1.16-.423-2.02v-5.647h-1.451v-.996l1.557-.787.74-2.249h1.423v2.334h3.048v1.698h-3.048v5.618c0 .531.135.926.404 1.186.269.259.625.389 1.067.389ZM130.202 37.828v10.504h-2.259V37.828h2.259Zm-1.115-4.023c.346 0 .644.092.894.275.256.184.384.5.384.949 0 .443-.128.76-.384.949a1.47 1.47 0 0 1-.894.275c-.359 0-.664-.092-.914-.275-.243-.19-.365-.506-.365-.949 0-.45.122-.765.365-.949.25-.183.555-.275.914-.275ZM139.171 37.629c1.199 0 2.131.307 2.798.92.673.608 1.009 1.585 1.009 2.932v6.85h-2.259V41.9c0-.816-.17-1.427-.51-1.832-.339-.41-.865-.616-1.576-.616-1.032 0-1.75.313-2.154.939-.397.626-.596 1.534-.596 2.723v5.219h-2.259V37.828h1.759l.317 1.423h.125c.231-.366.516-.667.856-.901.346-.24.731-.42 1.154-.54.429-.121.875-.181 1.336-.181ZM149.361 53c-1.442 0-2.547-.256-3.317-.769-.769-.512-1.153-1.23-1.153-2.153 0-.646.205-1.193.615-1.642.41-.443.997-.75 1.759-.92a1.955 1.955 0 0 1-.749-.588 1.458 1.458 0 0 1-.308-.902c0-.392.112-.727.336-1.006.225-.278.561-.547 1.01-.806a2.923 2.923 0 0 1-1.346-1.139c-.333-.531-.5-1.154-.5-1.869 0-.76.163-1.404.49-1.936.327-.537.805-.945 1.433-1.224.628-.284 1.387-.427 2.278-.427.193 0 .401.013.625.038.231.02.443.045.635.076.199.026.349.054.452.086h3.682v1.243l-1.808.332a3.111 3.111 0 0 1 .568 1.822c0 1.087-.382 1.945-1.144 2.57-.757.62-1.801.93-3.135.93-.32-.012-.631-.037-.932-.075-.231.139-.407.294-.529.465a.916.916 0 0 0-.183.56c0 .17.061.31.183.417.122.101.301.177.538.228.244.05.539.076.885.076h1.836c1.167 0 2.058.243 2.673.73.615.487.923 1.202.923 2.145 0 1.195-.5 2.115-1.5 2.76-1 .652-2.439.978-4.317.978Zm.087-1.566c.788 0 1.452-.075 1.99-.227.538-.152.945-.37 1.221-.655.276-.278.413-.61.413-.996 0-.342-.086-.604-.259-.788-.173-.183-.433-.31-.779-.38a6.674 6.674 0 0 0-1.288-.104h-1.673c-.417 0-.785.063-1.106.19-.32.133-.57.323-.75.57-.173.246-.259.543-.259.891 0 .481.214.851.644 1.11.436.26 1.051.39 1.846.39Zm.442-8.178c.66 0 1.151-.178 1.471-.532.321-.36.481-.866.481-1.518 0-.709-.167-1.24-.5-1.594-.327-.354-.814-.531-1.461-.531-.635 0-1.119.18-1.452.54-.327.361-.491.895-.491 1.604 0 .639.164 1.139.491 1.5.333.353.82.53 1.461.53ZM162.118 48.529c-1.484 0-2.616-.46-3.395-1.38-.772-.926-1.158-2.273-1.158-4.04 0-1.852.41-3.264 1.228-4.236.819-.973 1.96-1.459 3.425-1.459.625 0 1.168.096 1.627.286.466.19.856.45 1.168.778.32.322.566.69.739 1.104h.08a25.102 25.102 0 0 1-.06-1.123c-.013-.401-.02-.769-.02-1.104V33h1.009v15.332h-.819l-.13-1.961h-.06c-.18.394-.429.755-.749 1.084a3.403 3.403 0 0 1-1.178.788c-.472.19-1.041.286-1.707.286Zm.11-.867c1.278 0 2.186-.391 2.725-1.173.54-.788.809-1.911.809-3.37v-.157c0-1.511-.269-2.667-.809-3.469-.539-.808-1.417-1.212-2.635-1.212-1.205 0-2.127.414-2.766 1.242-.632.828-.948 2.03-.948 3.606 0 1.485.296 2.611.888 3.38.599.768 1.511 1.153 2.736 1.153ZM180.128 42.962c0 .827-.103 1.583-.31 2.266a5.022 5.022 0 0 1-.918 1.754 4.084 4.084 0 0 1-1.518 1.143c-.599.27-1.298.404-2.097.404-.758 0-1.434-.132-2.026-.394a4.218 4.218 0 0 1-1.508-1.143 5.16 5.16 0 0 1-.928-1.754c-.213-.683-.32-1.442-.32-2.276 0-1.15.193-2.139.579-2.966.393-.834.952-1.472 1.677-1.912.733-.446 1.608-.67 2.626-.67 1.052 0 1.927.237 2.626.71.706.466 1.235 1.116 1.588 1.95.352.835.529 1.797.529 2.888Zm-8.587 0c0 .939.137 1.76.41 2.463.273.703.685 1.251 1.238 1.646.559.394 1.264.59 2.116.59.872 0 1.588-.196 2.147-.59.559-.395.972-.946 1.238-1.656s.399-1.527.399-2.453c0-.9-.126-1.702-.379-2.405-.253-.702-.652-1.254-1.198-1.655-.546-.407-1.258-.61-2.137-.61-1.258 0-2.213.413-2.865 1.24-.646.828-.969 1.971-.969 3.43ZM187.658 48.529c-1.079 0-1.99-.22-2.736-.66-.739-.447-1.298-1.081-1.677-1.902-.373-.828-.559-1.806-.559-2.936 0-1.176.216-2.181.649-3.015.432-.841 1.041-1.485 1.827-1.932.785-.446 1.707-.67 2.765-.67.519 0 1.002.046 1.448.138.446.092.849.22 1.208.385l-.27.876a5.789 5.789 0 0 0-1.188-.374 6.05 6.05 0 0 0-1.208-.128c-.892 0-1.65.194-2.276.581-.619.381-1.095.926-1.428 1.636-.326.703-.489 1.534-.489 2.493 0 .9.14 1.698.419 2.394.28.69.709 1.235 1.288 1.636.579.394 1.321.591 2.227.591.526 0 1.025-.053 1.497-.158.48-.105.916-.24 1.308-.404v.907a6.122 6.122 0 0 1-1.228.384 7.105 7.105 0 0 1-1.577.158ZM200 45.523c0 .638-.163 1.183-.489 1.636-.32.447-.789.788-1.408 1.025-.619.23-1.381.345-2.286.345a9.355 9.355 0 0 1-2.017-.197c-.592-.132-1.088-.293-1.488-.483v-.985c.499.243 1.052.44 1.658.59a7.68 7.68 0 0 0 1.867.227c1.118 0 1.923-.187 2.416-.561.492-.375.739-.887.739-1.537 0-.427-.124-.779-.37-1.055-.239-.282-.586-.525-1.038-.729-.453-.203-.999-.41-1.638-.62a26.749 26.749 0 0 1-1.777-.66c-.512-.224-.915-.516-1.208-.878-.293-.367-.439-.867-.439-1.497 0-.86.349-1.53 1.048-2.01.699-.48 1.638-.72 2.816-.72.652 0 1.258.063 1.817.188a8.588 8.588 0 0 1 1.537.463l-.359.847a6.982 6.982 0 0 0-1.428-.463 7.523 7.523 0 0 0-1.617-.177c-.885 0-1.578.154-2.077.463-.499.308-.749.762-.749 1.36 0 .46.12.82.36 1.083.239.256.582.473 1.028.65.446.171.975.362 1.588.572.632.217 1.214.443 1.747.68.539.236.968.542 1.288.916.319.375.479.884.479 1.527Z"/></svg>
