<svg version="1.1" xmlns="http://www.w3.org/2000/svg" viewBox="0 0 1492.0246335565325 1262" width="1492.0246335565325" height="1262">
  <!-- svg-source:excalidraw -->
  
  <defs>
    <style class="style-fonts">
      @font-face {
        font-family: "Virgil";
        src: url("https://excalidraw.com/Virgil.woff2");
      }
      @font-face {
        font-family: "Cascadia";
        src: url("https://excalidraw.com/Cascadia.woff2");
      }
      @font-face {
        font-family: "Assistant";
        src: url("https://excalidraw.com/Assistant-Regular.woff2");
      }
    </style>
    
  </defs>
  <rect x="0" y="0" width="1492.0246335565325" height="1262" fill="#ffffff"></rect><g stroke-linecap="round" transform="translate(553.3046675591627 10) rotate(0 98.5 57)"><path d="M28.5 0 C75.81 -0.51, 121.1 -0.9, 168.5 0 M28.5 0 C70.26 1.57, 111.27 2.22, 168.5 0 M168.5 0 C187.08 -0.23, 197.86 8.02, 197 28.5 M168.5 0 C185.96 -0.42, 197.48 11.16, 197 28.5 M197 28.5 C196.53 45.41, 195.1 62.23, 197 85.5 M197 28.5 C197.63 45.51, 196.97 62.8, 197 85.5 M197 85.5 C195.17 106.19, 186.36 114.38, 168.5 114 M197 85.5 C197.8 105.53, 188.62 114.71, 168.5 114 M168.5 114 C128.85 115.46, 87.47 114.79, 28.5 114 M168.5 114 C132.88 114.6, 96.9 114.02, 28.5 114 M28.5 114 C8.21 114.24, 1.52 105.86, 0 85.5 M28.5 114 C9.93 113, 1.36 103.56, 0 85.5 M0 85.5 C1.86 67.21, 1.97 44.45, 0 28.5 M0 85.5 C-0.28 73.38, -0.64 60.88, 0 28.5 M0 28.5 C-1.51 10.19, 8.04 0.19, 28.5 0 M0 28.5 C-2.22 9.79, 7.63 0.01, 28.5 0" stroke="#1e1e1e" stroke-width="2" fill="none"></path></g><g transform="translate(608.8846678643386 51) rotate(0 37.358333587646484 18.399999999999977)"><text x="0" y="0" font-family="Helvetica, Segoe UI Emoji" font-size="31.999999999999957px" fill="#1e1e1e" text-anchor="start" style="white-space: pre;" direction="ltr" dominant-baseline="text-before-edge">State</text></g><g stroke-linecap="round"><g transform="translate(755.2647269213858 136.01656403150355) rotate(0 42.62086956476719 54.991717984248226)"><path d="M0.94 -0.81 C15.41 17.61, 71.7 91.31, 85.91 109.93 M-0.02 1.37 C14.42 20.05, 70.99 93.49, 85.31 111.44" stroke="#1e1e1e" stroke-width="2" fill="none"></path></g><g transform="translate(755.2647269213858 136.01656403150355) rotate(0 42.62086956476719 54.991717984248226)"><path d="M64.1 98.2 C67.48 102.14, 73.55 105.59, 85.31 111.44 M64.1 98.2 C71.51 104.1, 81.01 108.71, 85.31 111.44" stroke="#1e1e1e" stroke-width="2" fill="none"></path></g><g transform="translate(755.2647269213858 136.01656403150355) rotate(0 42.62086956476719 54.991717984248226)"><path d="M77.57 87.66 C77.85 94.1, 80.86 99.94, 85.31 111.44 M77.57 87.66 C80.03 97.45, 84.48 106.01, 85.31 111.44" stroke="#1e1e1e" stroke-width="2" fill="none"></path></g></g><mask></mask><g stroke-linecap="round"><g transform="translate(546.6729876025097 131.48470580267053) rotate(0 -34.684160021673506 63.757647098664734)"><path d="M0.08 0.55 C-11.61 22.06, -58.59 107.45, -70.16 128.42 M-1.34 -0.21 C-12.64 21.04, -56.41 105.56, -67.87 126.78" stroke="#1e1e1e" stroke-width="2" fill="none"></path></g><g transform="translate(546.6729876025097 131.48470580267053) rotate(0 -34.684160021673506 63.757647098664734)"><path d="M-64.47 102.01 C-64.71 108.03, -65.12 116.72, -67.87 126.78 M-64.47 102.01 C-64.33 107.8, -65.56 113.09, -67.87 126.78" stroke="#1e1e1e" stroke-width="2" fill="none"></path></g><g transform="translate(546.6729876025097 131.48470580267053) rotate(0 -34.684160021673506 63.757647098664734)"><path d="M-49.34 109.99 C-54.03 113.66, -58.92 119.98, -67.87 126.78 M-49.34 109.99 C-52.36 114.03, -56.69 117.69, -67.87 126.78" stroke="#1e1e1e" stroke-width="2" fill="none"></path></g></g><mask></mask><g stroke-linecap="round" transform="translate(361.3046675591627 272) rotate(0 115.5 63)"><path d="M31.5 0 C91.95 1.62, 156.45 0.42, 199.5 0 M31.5 0 C85.28 -1.8, 140.38 -0.46, 199.5 0 M199.5 0 C222.2 1.05, 232.79 12.07, 231 31.5 M199.5 0 C222.57 -1.8, 229.33 11.05, 231 31.5 M231 31.5 C231.9 44.99, 228.72 57.82, 231 94.5 M231 31.5 C231.27 55.24, 230.33 78.89, 231 94.5 M231 94.5 C231.84 115.97, 221.15 125.55, 199.5 126 M231 94.5 C232.56 117.48, 219.67 127.64, 199.5 126 M199.5 126 C147.54 125.53, 96.86 125.73, 31.5 126 M199.5 126 C133.09 127.78, 66.52 126.82, 31.5 126 M31.5 126 C9.02 126.4, 0.38 113.95, 0 94.5 M31.5 126 C11.59 128.14, 1.49 117.19, 0 94.5 M0 94.5 C1.52 75.74, 1.86 57.8, 0 31.5 M0 94.5 C1.05 74.84, 1.27 55.29, 0 31.5 M0 31.5 C0.62 12.21, 11.32 1.3, 31.5 0 M0 31.5 C0.13 8.58, 12.32 -1.43, 31.5 0" stroke="#1e1e1e" stroke-width="2" fill="none"></path></g><g stroke-linecap="round" transform="translate(721.3046675591627 271) rotate(0 115.5 63)"><path d="M31.5 0 C84.32 1.74, 139.61 1.24, 199.5 0 M31.5 0 C75.41 -1.52, 120.05 -1.31, 199.5 0 M199.5 0 C221.99 -0.73, 230.14 9.53, 231 31.5 M199.5 0 C221.96 1.57, 229.17 10.26, 231 31.5 M231 31.5 C229.75 48.12, 231.16 69.16, 231 94.5 M231 31.5 C231.82 52.77, 231.47 75.92, 231 94.5 M231 94.5 C230.23 114.26, 219.56 126.04, 199.5 126 M231 94.5 C230.92 116.89, 222.33 125.57, 199.5 126 M199.5 126 C161.49 123.16, 127.42 125.07, 31.5 126 M199.5 126 C160.46 125.12, 120.92 126.81, 31.5 126 M31.5 126 C10.24 125.16, -0.37 113.72, 0 94.5 M31.5 126 C11.84 124.57, -1.56 116.37, 0 94.5 M0 94.5 C-1.11 72.84, -0.09 54.34, 0 31.5 M0 94.5 C-0.34 71.5, 0.44 48.06, 0 31.5 M0 31.5 C-1.55 11.44, 12.43 0.47, 31.5 0 M0 31.5 C1.76 12.34, 9.67 1.94, 31.5 0" stroke="#1e1e1e" stroke-width="2" fill="none"></path></g><g transform="translate(807.9046679406324 322.5) rotate(0 28.899999618530273 11.5)"><text x="28.899999618530273" y="0" font-family="Helvetica, Segoe UI Emoji" font-size="20px" fill="#1e1e1e" text-anchor="middle" style="white-space: pre;" direction="ltr" dominant-baseline="text-before-edge">Global</text></g><g transform="translate(451.3046675591627 332) rotate(0 21.116666793823242 11.5)"><text x="0" y="0" font-family="Helvetica, Segoe UI Emoji" font-size="20px" fill="#1e1e1e" text-anchor="start" style="white-space: pre;" direction="ltr" dominant-baseline="text-before-edge">User</text></g><g stroke-linecap="round"><g transform="translate(11.198413082910747 431) rotate(0 734.3819523526416 -3.913763250252657)"><path d="M0.17 -0.82 C244.97 -2.25, 1224.83 -7.24, 1469.7 -8.56 M-1.2 1.36 C243.45 0.07, 1224.22 -5.86, 1469.24 -7.41" stroke="#1e1e1e" stroke-width="2" fill="none"></path></g></g><mask></mask><g transform="translate(13.854331826594944 200.4477385045476) rotate(0 163.35833740234386 11.5)"><text x="0" y="0" font-family="Helvetica, Segoe UI Emoji" font-size="20px" fill="#1e1e1e" text-anchor="start" style="white-space: pre;" direction="ltr" dominant-baseline="text-before-edge">Platform owned &amp; Platform managed</text></g><g stroke-linecap="round"><g transform="translate(476.3046675591627 410) rotate(0 78 119)"><path d="M0.99 0.82 C27.02 40.52, 129.73 198.4, 155.53 237.92 M0.05 0.21 C25.94 40.13, 128.52 199.58, 154.33 239.42" stroke="#1e1e1e" stroke-width="2" fill="none"></path></g><g transform="translate(476.3046675591627 410) rotate(0 78 119)"><path d="M134.41 224.32 C140.65 227.08, 144.05 231.26, 154.33 239.42 M134.41 224.32 C139.45 229.24, 145.76 234.08, 154.33 239.42" stroke="#1e1e1e" stroke-width="2" fill="none"></path></g><g transform="translate(476.3046675591627 410) rotate(0 78 119)"><path d="M148.78 215.04 C151.46 220.21, 151.33 226.67, 154.33 239.42 M148.78 215.04 C149.64 222.6, 151.7 230.18, 154.33 239.42" stroke="#1e1e1e" stroke-width="2" fill="none"></path></g></g><mask></mask><g stroke-linecap="round"><g transform="translate(835.3046675591627 410) rotate(0 -98 119.50000000000006)"><path d="M-0.04 0.82 C-32.38 40.38, -162.14 198.57, -194.96 238.33 M-1.51 0.2 C-33.84 39.83, -163.18 200.01, -195.36 239.51" stroke="#1e1e1e" stroke-width="2" fill="none"></path></g><g transform="translate(835.3046675591627 410) rotate(0 -98 119.50000000000006)"><path d="M-187.21 215.88 C-187.49 222.91, -191.8 224.84, -195.36 239.51 M-187.21 215.88 C-190.09 223.06, -192.28 232.41, -195.36 239.51" stroke="#1e1e1e" stroke-width="2" fill="none"></path></g><g transform="translate(835.3046675591627 410) rotate(0 -98 119.50000000000006)"><path d="M-173.92 226.65 C-177.27 231.26, -184.55 230.78, -195.36 239.51 M-173.92 226.65 C-181.23 230.24, -187.82 236.03, -195.36 239.51" stroke="#1e1e1e" stroke-width="2" fill="none"></path></g></g><mask></mask><g stroke-linecap="round" transform="translate(487.3046675591627 663) rotate(0 148.5 75.49999999999994)"><path d="M32 0 C116.23 0.07, 201.22 1.65, 265 0 M32 0 C106.59 0.68, 182.39 -0.46, 265 0 M265 0 C287.07 1.4, 296.02 9.88, 297 32 M265 0 C288.41 -0.24, 298.94 11.44, 297 32 M297 32 C296.81 58.25, 296.19 80.75, 297 119 M297 32 C297.62 66.69, 296.41 101.09, 297 119 M297 119 C298.37 140.8, 286.95 150.94, 265 151 M297 119 C296.91 140.13, 286.78 149.02, 265 151 M265 151 C202.11 152.25, 141 154.23, 32 151 M265 151 C177.48 152.02, 89.42 150.44, 32 151 M32 151 C12.4 151.96, -0.19 139.8, 0 119 M32 151 C12.2 151.65, 1.35 142.4, 0 119 M0 119 C0.3 99.71, 0.43 84.3, 0 32 M0 119 C1.22 92.91, 1 67.99, 0 32 M0 32 C-0.42 12.06, 11.94 1.47, 32 0 M0 32 C-0.67 11.97, 10.51 0.03, 32 0" stroke="#1e1e1e" stroke-width="2" fill="none"></path></g><g transform="translate(548.3046675591627 727) rotate(0 87.875 12)"><text x="0" y="0" font-family="Cascadia, Segoe UI Emoji" font-size="20px" fill="#1e1e1e" text-anchor="start" style="white-space: pre;" direction="ltr" dominant-baseline="text-before-edge">StateDefinition</text></g><g stroke-linecap="round"><g transform="translate(16.336045585437205 883.5174204984843) rotate(0 732.4686219737252 -1.7587102492420854)"><path d="M-0.39 0.48 C243.85 -0.27, 1221.33 -3.61, 1465.69 -4.19 M1.6 -0.31 C245.74 -0.95, 1221.16 -2.21, 1465.13 -3.01" stroke="#1e1e1e" stroke-width="2" fill="none"></path></g></g><mask></mask><g transform="translate(62.88744133821615 672.5165547558108) rotate(0 150.59165954589832 11.5)"><text x="0" y="0" font-family="Helvetica, Segoe UI Emoji" font-size="20px" fill="#1e1e1e" text-anchor="start" style="white-space: pre;" direction="ltr" dominant-baseline="text-before-edge">Platform owned &amp; Team managed</text></g><g stroke-linecap="round"><g transform="translate(629.3046675591627 829.0000000000001) rotate(0 0 117.5)"><path d="M-0.84 -1.04 C-0.97 37.84, -1.1 194.46, -1.08 233.95 M0.92 1.03 C1.18 39.96, 0.91 196.11, 1.06 234.93" stroke="#1e1e1e" stroke-width="2" fill="none"></path></g><g transform="translate(629.3046675591627 829.0000000000001) rotate(0 0 117.5)"><path d="M-7.51 211.44 C-6.78 216.1, -4.47 223.1, 1.06 234.93 M-7.51 211.44 C-3.51 219.77, -1.19 229.37, 1.06 234.93" stroke="#1e1e1e" stroke-width="2" fill="none"></path></g><g transform="translate(629.3046675591627 829.0000000000001) rotate(0 0 117.5)"><path d="M9.59 211.43 C5.66 215.97, 3.32 222.97, 1.06 234.93 M9.59 211.43 C7.26 219.79, 3.25 229.39, 1.06 234.93" stroke="#1e1e1e" stroke-width="2" fill="none"></path></g></g><mask></mask><g stroke-linecap="round" transform="translate(486.3046675591627 1086) rotate(0 147 83)"><path d="M32 0 C92.32 1.69, 150.03 -0.35, 262 0 M32 0 C79.39 1.82, 126.87 1.93, 262 0 M262 0 C284.49 -0.86, 293.26 12.27, 294 32 M262 0 C282.39 -0.81, 296.17 11.23, 294 32 M294 32 C293.15 65.96, 293.41 101.65, 294 134 M294 32 C293.95 54.84, 294.97 78.62, 294 134 M294 134 C294.82 157.04, 281.5 164.97, 262 166 M294 134 C293.25 156.51, 282.29 165.45, 262 166 M262 166 C192.68 167.42, 120.86 166.22, 32 166 M262 166 C191 166.11, 118.58 166.17, 32 166 M32 166 C9.59 165.3, 1.19 154.38, 0 134 M32 166 C9.41 165.91, 2.08 155.01, 0 134 M0 134 C2.04 105.55, 1.02 79.23, 0 32 M0 134 C-1.31 95.79, -0.09 57.27, 0 32 M0 32 C-0.52 10.19, 9.22 -0.65, 32 0 M0 32 C0.02 12.63, 12.82 1.44, 32 0" stroke="#1e1e1e" stroke-width="2" fill="none"></path></g><g transform="translate(550.7184308094152 1157.5174204984842) rotate(0 76.15833282470703 12)"><text x="0" y="0" font-family="Cascadia, Segoe UI Emoji" font-size="20px" fill="#1e1e1e" text-anchor="start" style="white-space: pre;" direction="ltr" dominant-baseline="text-before-edge">KeyDefinition</text></g><g transform="translate(75.05991483771095 1104.1376325025262) rotate(0 137.8249969482422 11.5)"><text x="0" y="0" font-family="Helvetica, Segoe UI Emoji" font-size="20px" fill="#1e1e1e" text-anchor="start" style="white-space: pre;" direction="ltr" dominant-baseline="text-before-edge">Team owned &amp; Team managed</text></g><g transform="translate(978.7550032917306 209.4477385045475) rotate(0 240.19166564941406 36)"><text x="0" y="0" font-family="Cascadia, Segoe UI Emoji" font-size="20px" fill="#1e1e1e" text-anchor="start" style="white-space: pre;" direction="ltr" dominant-baseline="text-before-edge">global</text><text x="0" y="24" font-family="Cascadia, Segoe UI Emoji" font-size="20px" fill="#1e1e1e" text-anchor="start" style="white-space: pre;" direction="ltr" dominant-baseline="text-before-edge"></text><text x="0" y="48" font-family="Cascadia, Segoe UI Emoji" font-size="20px" fill="#1e1e1e" text-anchor="start" style="white-space: pre;" direction="ltr" dominant-baseline="text-before-edge">user_ac06d663-bbbc-4a51-a764-5d105ae6f7cb</text></g><g transform="translate(888.0311340394569 691.9991342573264) rotate(0 275.3416748046875 36.00000000000006)"><text x="0" y="0" font-family="Cascadia, Segoe UI Emoji" font-size="20px" fill="#1e1e1e" text-anchor="start" style="white-space: pre;" direction="ltr" dominant-baseline="text-before-edge">global_state</text><text x="0" y="24" font-family="Cascadia, Segoe UI Emoji" font-size="20px" fill="#1e1e1e" text-anchor="start" style="white-space: pre;" direction="ltr" dominant-baseline="text-before-edge"></text><text x="0" y="48" font-family="Cascadia, Segoe UI Emoji" font-size="20px" fill="#1e1e1e" text-anchor="start" style="white-space: pre;" direction="ltr" dominant-baseline="text-before-edge">user_ac06d663-bbbc-4a51-a764-5d105ae6f7cb_state</text></g><g transform="translate(879.4788725440044 1094.5174204984842) rotate(0 298.7749938964844 48)"><text x="0" y="0" font-family="Cascadia, Segoe UI Emoji" font-size="20px" fill="#1e1e1e" text-anchor="start" style="white-space: pre;" direction="ltr" dominant-baseline="text-before-edge">global_state_key</text><text x="0" y="24" font-family="Cascadia, Segoe UI Emoji" font-size="20px" fill="#1e1e1e" text-anchor="start" style="white-space: pre;" direction="ltr" dominant-baseline="text-before-edge"></text><text x="0" y="48" font-family="Cascadia, Segoe UI Emoji" font-size="20px" fill="#1e1e1e" text-anchor="start" style="white-space: pre;" direction="ltr" dominant-baseline="text-before-edge">user_ac06d663-bbbc-4a51-a764-5d105ae6f7cb_state_key</text><text x="0" y="72" font-family="Cascadia, Segoe UI Emoji" font-size="20px" fill="#1e1e1e" text-anchor="start" style="white-space: pre;" direction="ltr" dominant-baseline="text-before-edge"></text></g></svg>